<?xml version="1.0" encoding="utf-8"?>
<!-- Generator: Adobe Illustrator 16.0.0, SVG Export Plug-In . SVG Version: 6.00 Build 0)  -->
<!DOCTYPE svg PUBLIC "-//W3C//DTD SVG 1.1//EN" "http://www.w3.org/Graphics/SVG/1.1/DTD/svg11.dtd">
<svg version="1.1" id="Layer_1" xmlns="http://www.w3.org/2000/svg" xmlns:xlink="http://www.w3.org/1999/xlink" x="0px" y="0px"
	 width="1024px" height="1024px" viewBox="0 0 1024 1024" enable-background="new 0 0 1024 1024" xml:space="preserve">
<g>
	<g>
		<g>
			<rect x="341.25" y="569" fill="#EA3323" width="115" height="115"/>
			<rect x="341.25" y="455" fill="#EA3323" width="115" height="115"/>
			<rect x="227.5" y="455" fill="#EA3323" width="115" height="115"/>
			<rect x="227.5" y="341.25" fill="#EA3323" width="115" height="115"/>
			<rect x="341.25" y="341.25" fill="#EA3323" width="115" height="115"/>
			<rect x="341.25" y="227.5" fill="#EA3323" width="115" height="115"/>
			<rect x="455" y="341.25" fill="#EA3323" width="115" height="115"/>
			<rect x="569" y="227.5" fill="#EA3323" width="115" height="115"/>
			<rect x="682.75" y="227.5" fill="#EA3323" width="115" height="115"/>
			<rect x="682.75" y="341.25" fill="#EA3323" width="115" height="115"/>
			<rect x="796.5" y="455" fill="#4E4E4E" width="115" height="115"/>
			<rect x="796.5" y="341.25" fill="#4E4E4E" width="115" height="115"/>
			<rect x="796.5" y="227.5" fill="#4E4E4E" width="115" height="115"/>
			<rect x="682.75" y="569" fill="#4E4E4E" width="115" height="115"/>
			<rect x="682.75" y="455" fill="#80180F" width="115" height="115"/>
			<rect x="682.75" y="115" fill="#4E4E4E" width="115" height="115"/>
			<rect x="569" y="682.75" fill="#4E4E4E" width="115" height="115"/>
			<rect x="569" y="569" fill="#80180F" width="115" height="115"/>
			<rect x="569" y="455" fill="#EA3323" width="115" height="115"/>
			<rect x="569" y="341.25" fill="#EA3323" width="115" height="115"/>
			<rect x="569" y="115" fill="#4E4E4E" width="115" height="115"/>
			<rect x="455" y="796.5" fill="#4E4E4E" width="115" height="115"/>
			<rect x="455" y="682.75" fill="#80180F" width="115" height="115"/>
			<rect x="455" y="569" fill="#EA3323" width="115" height="115"/>
			<rect x="455" y="455" fill="#EA3323" width="115" height="115"/>
			<rect x="455" y="227.5" fill="#4E4E4E" width="115" height="115"/>
			<rect x="341.25" y="682.75" fill="#4E4E4E" width="115" height="115"/>
			<rect x="341.25" y="115" fill="#4E4E4E" width="115" height="115"/>
			<rect x="227.5" y="569" fill="#4E4E4E" width="115" height="115"/>
			<rect x="227.5" y="227.5" fill="#FFFFFF" width="115" height="115"/>
			<rect x="227.5" y="115" fill="#4E4E4E" width="115" height="115"/>
			<rect x="115" y="455" fill="#4E4E4E" width="115" height="115"/>
			<rect x="115" y="341.25" fill="#4E4E4E" width="115" height="115"/>
			<rect x="115" y="227.5" fill="#4E4E4E" width="115" height="115"/>
		</g>
	</g>
</g>
</svg>
