<?xml version="1.0" encoding="UTF-8"?>
<svg xmlns="http://www.w3.org/2000/svg" xmlns:xlink="http://www.w3.org/1999/xlink" width="256pt" height="256pt" viewBox="0 0 256 256" version="1.1">
<g id="surface1">
<path style=" stroke:none;fill-rule:nonzero;fill:rgb(91.764706%,20%,13.72549%);fill-opacity:1;" d="M 85.3125 142.25 L 114.0625 142.25 L 114.0625 171 L 85.3125 171 Z M 85.3125 142.25 "/>
<path style=" stroke:none;fill-rule:nonzero;fill:rgb(91.764706%,20%,13.72549%);fill-opacity:1;" d="M 85.3125 113.75 L 114.0625 113.75 L 114.0625 142.5 L 85.3125 142.5 Z M 85.3125 113.75 "/>
<path style=" stroke:none;fill-rule:nonzero;fill:rgb(91.764706%,20%,13.72549%);fill-opacity:1;" d="M 56.875 113.75 L 85.625 113.75 L 85.625 142.5 L 56.875 142.5 Z M 56.875 113.75 "/>
<path style=" stroke:none;fill-rule:nonzero;fill:rgb(91.764706%,20%,13.72549%);fill-opacity:1;" d="M 56.875 85.3125 L 85.625 85.3125 L 85.625 114.0625 L 56.875 114.0625 Z M 56.875 85.3125 "/>
<path style=" stroke:none;fill-rule:nonzero;fill:rgb(91.764706%,20%,13.72549%);fill-opacity:1;" d="M 85.3125 85.3125 L 114.0625 85.3125 L 114.0625 114.0625 L 85.3125 114.0625 Z M 85.3125 85.3125 "/>
<path style=" stroke:none;fill-rule:nonzero;fill:rgb(91.764706%,20%,13.72549%);fill-opacity:1;" d="M 85.3125 56.875 L 114.0625 56.875 L 114.0625 85.625 L 85.3125 85.625 Z M 85.3125 56.875 "/>
<path style=" stroke:none;fill-rule:nonzero;fill:rgb(91.764706%,20%,13.72549%);fill-opacity:1;" d="M 113.75 85.3125 L 142.5 85.3125 L 142.5 114.0625 L 113.75 114.0625 Z M 113.75 85.3125 "/>
<path style=" stroke:none;fill-rule:nonzero;fill:rgb(91.764706%,20%,13.72549%);fill-opacity:1;" d="M 142.25 56.875 L 171 56.875 L 171 85.625 L 142.25 85.625 Z M 142.25 56.875 "/>
<path style=" stroke:none;fill-rule:nonzero;fill:rgb(91.764706%,20%,13.72549%);fill-opacity:1;" d="M 170.6875 56.875 L 199.4375 56.875 L 199.4375 85.625 L 170.6875 85.625 Z M 170.6875 56.875 "/>
<path style=" stroke:none;fill-rule:nonzero;fill:rgb(91.764706%,20%,13.72549%);fill-opacity:1;" d="M 170.6875 85.3125 L 199.4375 85.3125 L 199.4375 114.0625 L 170.6875 114.0625 Z M 170.6875 85.3125 "/>
<path style=" stroke:none;fill-rule:nonzero;fill:rgb(0%,0%,0%);fill-opacity:1;" d="M 199.125 113.75 L 227.875 113.75 L 227.875 142.5 L 199.125 142.5 Z M 199.125 113.75 "/>
<path style=" stroke:none;fill-rule:nonzero;fill:rgb(0%,0%,0%);fill-opacity:1;" d="M 199.125 85.3125 L 227.875 85.3125 L 227.875 114.0625 L 199.125 114.0625 Z M 199.125 85.3125 "/>
<path style=" stroke:none;fill-rule:nonzero;fill:rgb(0%,0%,0%);fill-opacity:1;" d="M 199.125 56.875 L 227.875 56.875 L 227.875 85.625 L 199.125 85.625 Z M 199.125 56.875 "/>
<path style=" stroke:none;fill-rule:nonzero;fill:rgb(0%,0%,0%);fill-opacity:1;" d="M 170.6875 142.25 L 199.4375 142.25 L 199.4375 171 L 170.6875 171 Z M 170.6875 142.25 "/>
<path style=" stroke:none;fill-rule:nonzero;fill:rgb(50.196078%,9.411765%,5.882353%);fill-opacity:1;" d="M 170.6875 113.75 L 199.4375 113.75 L 199.4375 142.5 L 170.6875 142.5 Z M 170.6875 113.75 "/>
<path style=" stroke:none;fill-rule:nonzero;fill:rgb(0%,0%,0%);fill-opacity:1;" d="M 170.6875 28.75 L 199.4375 28.75 L 199.4375 57.5 L 170.6875 57.5 Z M 170.6875 28.75 "/>
<path style=" stroke:none;fill-rule:nonzero;fill:rgb(0%,0%,0%);fill-opacity:1;" d="M 142.25 170.6875 L 171 170.6875 L 171 199.4375 L 142.25 199.4375 Z M 142.25 170.6875 "/>
<path style=" stroke:none;fill-rule:nonzero;fill:rgb(50.196078%,9.411765%,5.882353%);fill-opacity:1;" d="M 142.25 142.25 L 171 142.25 L 171 171 L 142.25 171 Z M 142.25 142.25 "/>
<path style=" stroke:none;fill-rule:nonzero;fill:rgb(91.764706%,20%,13.72549%);fill-opacity:1;" d="M 142.25 113.75 L 171 113.75 L 171 142.5 L 142.25 142.5 Z M 142.25 113.75 "/>
<path style=" stroke:none;fill-rule:nonzero;fill:rgb(91.764706%,20%,13.72549%);fill-opacity:1;" d="M 142.25 85.3125 L 171 85.3125 L 171 114.0625 L 142.25 114.0625 Z M 142.25 85.3125 "/>
<path style=" stroke:none;fill-rule:nonzero;fill:rgb(0%,0%,0%);fill-opacity:1;" d="M 142.25 28.75 L 171 28.75 L 171 57.5 L 142.25 57.5 Z M 142.25 28.75 "/>
<path style=" stroke:none;fill-rule:nonzero;fill:rgb(0%,0%,0%);fill-opacity:1;" d="M 113.75 199.125 L 142.5 199.125 L 142.5 227.875 L 113.75 227.875 Z M 113.75 199.125 "/>
<path style=" stroke:none;fill-rule:nonzero;fill:rgb(50.196078%,9.411765%,5.882353%);fill-opacity:1;" d="M 113.75 170.6875 L 142.5 170.6875 L 142.5 199.4375 L 113.75 199.4375 Z M 113.75 170.6875 "/>
<path style=" stroke:none;fill-rule:nonzero;fill:rgb(91.764706%,20%,13.72549%);fill-opacity:1;" d="M 113.75 142.25 L 142.5 142.25 L 142.5 171 L 113.75 171 Z M 113.75 142.25 "/>
<path style=" stroke:none;fill-rule:nonzero;fill:rgb(91.764706%,20%,13.72549%);fill-opacity:1;" d="M 113.75 113.75 L 142.5 113.75 L 142.5 142.5 L 113.75 142.5 Z M 113.75 113.75 "/>
<path style=" stroke:none;fill-rule:nonzero;fill:rgb(0%,0%,0%);fill-opacity:1;" d="M 113.75 56.875 L 142.5 56.875 L 142.5 85.625 L 113.75 85.625 Z M 113.75 56.875 "/>
<path style=" stroke:none;fill-rule:nonzero;fill:rgb(0%,0%,0%);fill-opacity:1;" d="M 85.3125 170.6875 L 114.0625 170.6875 L 114.0625 199.4375 L 85.3125 199.4375 Z M 85.3125 170.6875 "/>
<path style=" stroke:none;fill-rule:nonzero;fill:rgb(0%,0%,0%);fill-opacity:1;" d="M 85.3125 28.75 L 114.0625 28.75 L 114.0625 57.5 L 85.3125 57.5 Z M 85.3125 28.75 "/>
<path style=" stroke:none;fill-rule:nonzero;fill:rgb(0%,0%,0%);fill-opacity:1;" d="M 56.875 142.25 L 85.625 142.25 L 85.625 171 L 56.875 171 Z M 56.875 142.25 "/>
<path style=" stroke:none;fill-rule:nonzero;fill:rgb(100%,100%,100%);fill-opacity:1;" d="M 56.875 56.875 L 85.625 56.875 L 85.625 85.625 L 56.875 85.625 Z M 56.875 56.875 "/>
<path style=" stroke:none;fill-rule:nonzero;fill:rgb(0%,0%,0%);fill-opacity:1;" d="M 56.875 28.75 L 85.625 28.75 L 85.625 57.5 L 56.875 57.5 Z M 56.875 28.75 "/>
<path style=" stroke:none;fill-rule:nonzero;fill:rgb(0%,0%,0%);fill-opacity:1;" d="M 28.75 113.75 L 57.5 113.75 L 57.5 142.5 L 28.75 142.5 Z M 28.75 113.75 "/>
<path style=" stroke:none;fill-rule:nonzero;fill:rgb(0%,0%,0%);fill-opacity:1;" d="M 28.75 85.3125 L 57.5 85.3125 L 57.5 114.0625 L 28.75 114.0625 Z M 28.75 85.3125 "/>
<path style=" stroke:none;fill-rule:nonzero;fill:rgb(0%,0%,0%);fill-opacity:1;" d="M 28.75 56.875 L 57.5 56.875 L 57.5 85.625 L 28.75 85.625 Z M 28.75 56.875 "/>
</g>
</svg>
